<svg width="53" height="53" xmlns="http://www.w3.org/2000/svg" xmlns:xlink="http://www.w3.org/1999/xlink" overflow="hidden"><defs><clipPath id="clip0"><rect x="173" y="281" width="53" height="53"/></clipPath></defs><g clip-path="url(#clip0)" transform="translate(-173 -281)"><path d="M43.0625 11.0417 33.6771 11.0417 33.6771 8.28125C33.6771 6.12813 31.9656 4.41667 29.8125 4.41667L23.1875 4.41667C21.0344 4.41667 19.3229 6.12813 19.3229 8.28125L19.3229 11.0417 9.9375 11.0417C8.72292 11.0417 7.72917 12.0354 7.72917 13.25L7.72917 15.4583 45.2708 15.4583 45.2708 13.25C45.2708 12.0354 44.2771 11.0417 43.0625 11.0417ZM22.6354 8.28125C22.6354 7.95 22.8563 7.72917 23.1875 7.72917L29.8125 7.72917C30.1437 7.72917 30.3646 7.95 30.3646 8.28125L30.3646 11.0417 22.6354 11.0417 22.6354 8.28125Z" fill="#F22558" transform="matrix(-1 0 0 1 226 281)"/><path d="M11.0417 46.375C11.0417 47.5896 12.0354 48.5833 13.25 48.5833L39.75 48.5833C40.9646 48.5833 41.9583 47.5896 41.9583 46.375L41.9583 17.6667 11.0417 17.6667 11.0417 46.375ZM33.6771 20.9792 36.9896 20.9792 36.9896 45.2708 33.6771 45.2708 33.6771 20.9792ZM24.8438 20.9792 28.1562 20.9792 28.1562 45.2708 24.8438 45.2708 24.8438 20.9792ZM16.0104 20.9792 19.3229 20.9792 19.3229 45.2708 16.0104 45.2708 16.0104 20.9792Z" fill="#F22558" transform="matrix(-1 0 0 1 226 281)"/></g></svg>