<svg width="53" height="53" xmlns="http://www.w3.org/2000/svg" xmlns:xlink="http://www.w3.org/1999/xlink" overflow="hidden"><defs><clipPath id="clip0"><rect x="173" y="353" width="53" height="53"/></clipPath></defs><g clip-path="url(#clip0)" transform="translate(-173 -353)"><path d="M13.8021 39.2531C14.9062 40.3573 14.9062 42.0687 13.8021 43.1729L9.10938 44.7188 8.28125 43.8906 9.82708 39.1979C10.9865 38.149 12.6979 38.149 13.8021 39.2531ZM35.499 10.4344 7.89479 38.0938 4.41667 48.5833 14.9615 45.1052 42.5656 17.501" fill="#F22558" transform="matrix(-1 0 0 1 226 353)"/><path d="M47.976 8.94375 44.0563 5.02396C43.1729 4.14062 41.7927 4.14062 40.9094 5.02396L37.0448 8.88854 44.0563 15.9 47.9208 12.0354C48.8594 11.2073 48.8594 9.82708 47.976 8.94375Z" fill="#F22558" transform="matrix(-1 0 0 1 226 353)"/></g></svg>