<svg width="709" height="709" xmlns="http://www.w3.org/2000/svg" xmlns:xlink="http://www.w3.org/1999/xlink" overflow="hidden"><defs><clipPath id="clip0"><rect x="-2" y="3" width="709" height="709"/></clipPath></defs><g clip-path="url(#clip0)" transform="translate(2 -3)"><path d="M574.062 364.885C610.809 364.922 640.627 335.163 640.663 298.417 640.7 261.67 610.941 231.851 574.195 231.815 537.449 231.779 507.63 261.538 507.594 298.284 507.587 304.834 508.548 311.349 510.445 317.619L435.113 349.716C420.695 320.729 392.153 301.409 359.885 298.793L359.885 216.741C396.368 212.662 422.636 179.781 418.557 143.299 414.478 106.816 381.597 80.5484 345.115 84.6273 308.632 88.7055 282.364 121.587 286.443 158.069 289.893 188.932 314.253 213.291 345.115 216.741L345.115 298.793C312.857 301.419 284.329 320.738 269.916 349.716L194.555 317.619C205.355 282.329 185.502 244.966 150.211 234.166 114.921 223.367 77.5587 243.22 66.759 278.511 55.9596 313.8 75.8128 351.163 111.103 361.963 140.985 371.107 173.213 358.321 188.699 331.178L264.318 363.408C255.217 392.716 261.309 424.631 280.566 448.525L219.821 509.27C189.149 488.237 147.233 496.051 126.201 526.723 105.167 557.395 112.981 599.31 143.653 620.343 174.325 641.377 216.241 633.563 237.273 602.891 255.1 576.896 252.509 542.014 231.039 518.938L290.758 459.219C325.751 491.028 379.189 491.028 414.183 459.219L473.901 518.938C449.247 545.583 450.86 587.169 477.505 611.824 504.149 636.48 545.736 634.867 570.391 608.222 595.046 581.576 593.433 539.99 566.788 515.334 544.304 494.53 510.43 492.014 485.12 509.27L424.375 448.525C443.652 424.642 449.767 392.725 440.682 363.408L516.301 331.201C528.095 352.001 550.151 364.864 574.062 364.885ZM130.938 350.115C102.385 350.115 79.2396 326.969 79.2396 298.417 79.2396 269.865 102.385 246.719 130.938 246.719 159.49 246.719 182.635 269.865 182.635 298.417 182.603 326.955 159.476 350.082 130.938 350.115ZM300.802 150.708C300.802 122.156 323.948 99.0104 352.5 99.0104 381.052 99.0104 404.198 122.156 404.198 150.708 404.198 179.26 381.052 202.406 352.5 202.406 323.961 202.374 300.835 179.247 300.802 150.708ZM182.635 615.99C154.083 615.99 130.938 592.844 130.938 564.292 130.938 535.74 154.083 512.594 182.635 512.594 211.187 512.594 234.333 535.74 234.333 564.292 234.301 592.83 211.174 615.957 182.635 615.99ZM307.84 454.02C310.173 429.355 332.06 411.252 356.725 413.586 378.161 415.614 395.132 432.585 397.16 454.02 370.422 473.034 334.578 473.034 307.84 454.02ZM331.961 378.039C331.966 366.696 341.164 357.503 352.507 357.507 363.851 357.512 373.043 366.71 373.039 378.054 373.034 389.394 363.84 398.585 352.5 398.585 341.16 398.569 331.974 389.378 331.961 378.039ZM574.062 564.292C574.062 592.844 550.917 615.99 522.365 615.99 493.813 615.99 470.667 592.844 470.667 564.292 470.667 535.74 493.813 512.594 522.365 512.594 550.903 512.626 574.03 535.753 574.062 564.292ZM409.995 442.587C405.258 425.273 392.995 411.001 376.591 403.711 390.848 390.405 391.62 368.062 378.314 353.805 365.009 339.548 342.666 338.776 328.409 352.081 314.152 365.387 313.38 387.731 326.686 401.988 327.24 402.581 327.815 403.156 328.409 403.711 312.005 411.001 299.742 425.273 295.005 442.587 266.266 410.834 268.709 361.795 300.464 333.056 332.217 304.317 381.257 306.761 409.995 338.514 436.731 368.055 436.731 413.047 409.995 442.587ZM574.062 246.719C602.615 246.719 625.76 269.865 625.76 298.417 625.76 326.969 602.615 350.115 574.062 350.115 545.51 350.115 522.365 326.969 522.365 298.417 522.397 269.878 545.524 246.751 574.062 246.719Z" fill="#F32658"/></g></svg>