<svg width="76" height="76" xmlns="http://www.w3.org/2000/svg" xmlns:xlink="http://www.w3.org/1999/xlink" overflow="hidden"><defs><clipPath id="clip0"><rect x="183" y="160" width="76" height="76"/></clipPath></defs><g clip-path="url(#clip0)" transform="translate(-183 -160)"><path d="M250.688 219.85 240.792 209.954C239.446 208.608 237.625 208.133 235.883 208.45L232.4 204.967C235.488 201.008 237.308 195.942 237.308 190.558 237.308 177.496 226.621 166.808 213.558 166.808 200.496 166.808 189.808 177.496 189.808 190.558 189.808 203.621 200.496 214.308 213.558 214.308 218.942 214.308 223.929 212.488 227.967 209.4L231.45 212.883C231.133 214.625 231.608 216.446 232.954 217.792L242.85 227.688C243.958 228.796 245.383 229.35 246.808 229.35 248.233 229.35 249.658 228.796 250.767 227.688 252.825 225.471 252.825 221.988 250.688 219.85ZM213.479 209.479C203.029 209.479 194.479 200.929 194.479 190.479 194.479 180.029 203.029 171.479 213.479 171.479 223.929 171.479 232.479 180.029 232.479 190.479 232.479 200.929 223.929 209.479 213.479 209.479Z" fill="#F22558"/></g></svg>